<svg width="634" height="150" viewBox="0 0 634 150" fill="none" xmlns="http://www.w3.org/2000/svg">
<line x1="117" y1="34.9968" x2="117" y2="115.003" stroke="black" stroke-width="3"/>
<rect x="69.5" y="36.5" width="77" height="77" stroke="black" stroke-width="3"/>
<rect x="59.5" y="26.5" width="97" height="97" stroke="black" stroke-width="3"/>
<path d="M229.104 91.368C231.264 89.496 232.344 87.216 232.344 84.528C232.344 81.84 231.552 79.704 229.968 78.12C228.432 76.488 226.56 75.288 224.352 74.52C222.144 73.704 219.912 72.888 217.656 72.072C215.448 71.256 213.552 70.032 211.968 68.4C210.432 66.72 209.664 64.584 209.664 61.992C209.664 57.48 210.912 54.12 213.408 51.912C215.952 49.704 218.976 48.6 222.48 48.6C225.984 48.6 229.824 48.936 234 49.608V52.272C230.256 51.6 226.752 51.264 223.488 51.264C220.224 51.264 217.536 52.176 215.424 54C213.36 55.824 212.328 58.392 212.328 61.704C212.328 64.584 213.816 66.744 216.792 68.184C218.136 68.856 219.6 69.48 221.184 70.056C222.816 70.632 224.448 71.28 226.08 72C227.712 72.72 229.176 73.584 230.472 74.592C231.816 75.552 232.896 76.92 233.712 78.696C234.576 80.424 235.008 82.464 235.008 84.816C235.008 87.12 234.456 89.16 233.352 90.936C232.296 92.712 230.976 94.104 229.392 95.112C227.808 96.12 225.96 96.936 223.848 97.56C220.44 98.616 216.6 99.144 212.328 99.144H210.528V96.48C219.072 96.48 225.264 94.776 229.104 91.368ZM251.792 99H249.128V51.264H237.608V48.6H263.384V51.264H251.792V99ZM292.871 52.344V99H290.207V75.24H269.759V99H267.095V66.024C267.095 60.84 268.751 56.592 272.063 53.28C275.375 49.968 279.527 48.312 284.519 48.312C288.167 48.312 290.951 49.656 292.871 52.344ZM290.207 72.576V53.352C288.671 51.768 286.727 50.976 284.375 50.976C280.151 50.976 276.647 52.512 273.863 55.584C271.127 58.656 269.759 62.16 269.759 66.096V72.576H290.207ZM329.443 99H326.203L312.235 77.616C310.459 77.856 308.491 78.024 306.331 78.12V99H303.667V48.528C319.747 48.576 327.787 53.4 327.787 63C327.787 70.728 323.563 75.456 315.115 77.184L329.443 99ZM306.331 75.24L307.051 75.312C319.099 75.12 325.123 71.088 325.123 63.216C325.123 61.008 324.595 59.184 323.539 57.744C322.531 56.256 321.379 55.104 320.083 54.288C317.011 52.368 312.427 51.36 306.331 51.264V75.24ZM338.816 75.024L339.536 75.096C352.688 74.904 359.264 70.944 359.264 63.216C359.264 60.336 357.944 57.768 355.304 55.512C353.864 54.264 351.728 53.256 348.896 52.488C346.112 51.72 342.752 51.312 338.816 51.264V75.024ZM338.816 77.688V99H336.152V48.528C344.552 48.576 350.936 49.872 355.304 52.416C359.72 54.912 361.928 58.44 361.928 63C361.928 68.376 359.816 72.12 355.592 74.232C354.152 75 352.88 75.576 351.776 75.96C350.672 76.344 349.184 76.68 347.312 76.968C344.96 77.256 342.128 77.496 338.816 77.688ZM394.114 99H369.058V48.6H371.722V96.336H394.114V99ZM425.761 52.344V99H423.097V75.24H402.649V99H399.985V66.024C399.985 60.84 401.641 56.592 404.953 53.28C408.265 49.968 412.417 48.312 417.409 48.312C421.057 48.312 423.841 49.656 425.761 52.344ZM423.097 72.576V53.352C421.561 51.768 419.617 50.976 417.265 50.976C413.041 50.976 409.537 52.512 406.753 55.584C404.017 58.656 402.649 62.16 402.649 66.096V72.576H423.097ZM453.19 91.368C455.35 89.496 456.43 87.216 456.43 84.528C456.43 81.84 455.638 79.704 454.054 78.12C452.518 76.488 450.646 75.288 448.438 74.52C446.23 73.704 443.998 72.888 441.742 72.072C439.534 71.256 437.638 70.032 436.054 68.4C434.518 66.72 433.75 64.584 433.75 61.992C433.75 57.48 434.998 54.12 437.494 51.912C440.038 49.704 443.062 48.6 446.566 48.6C450.07 48.6 453.91 48.936 458.086 49.608V52.272C454.342 51.6 450.838 51.264 447.574 51.264C444.31 51.264 441.622 52.176 439.51 54C437.446 55.824 436.414 58.392 436.414 61.704C436.414 64.584 437.902 66.744 440.878 68.184C442.222 68.856 443.686 69.48 445.27 70.056C446.902 70.632 448.534 71.28 450.166 72C451.798 72.72 453.262 73.584 454.558 74.592C455.902 75.552 456.982 76.92 457.798 78.696C458.662 80.424 459.094 82.464 459.094 84.816C459.094 87.12 458.542 89.16 457.438 90.936C456.382 92.712 455.062 94.104 453.478 95.112C451.894 96.12 450.046 96.936 447.934 97.56C444.526 98.616 440.686 99.144 436.414 99.144H434.614V96.48C443.158 96.48 449.35 94.776 453.19 91.368ZM475.878 99H473.214V51.264H461.694V48.6H487.47V51.264H475.878V99ZM534.264 99H531.024L517.056 77.616C515.28 77.856 513.312 78.024 511.152 78.12V99H508.488V48.528C524.568 48.576 532.608 53.4 532.608 63C532.608 70.728 528.384 75.456 519.936 77.184L534.264 99ZM511.152 75.24L511.872 75.312C523.92 75.12 529.944 71.088 529.944 63.216C529.944 61.008 529.416 59.184 528.36 57.744C527.352 56.256 526.2 55.104 524.904 54.288C521.832 52.368 517.248 51.36 511.152 51.264V75.24Z" fill="black"/>
</svg>

